<svg viewBox="0 0 155 118" fill="none" xmlns="http://www.w3.org/2000/svg">
    <path
        d="M65.06 112.42C64.7667 112.66 64.4067 112.84 63.98 112.96C63.5667 113.08 63.1267 113.14 62.66 113.14C61.4867 113.14 60.58 112.833 59.94 112.22C59.3 111.607 58.98 110.713 58.98 109.54V104.4H57.22V102.4H58.98V99.96H61.48V102.4H64.34V104.4H61.48V109.48C61.48 110 61.6067 110.4 61.86 110.68C62.1133 110.947 62.48 111.08 62.96 111.08C63.52 111.08 63.9867 110.933 64.36 110.64L65.06 112.42ZM76.805 107.72C76.805 107.893 76.7917 108.14 76.765 108.46H68.385C68.5317 109.247 68.9117 109.873 69.525 110.34C70.1517 110.793 70.925 111.02 71.845 111.02C73.0183 111.02 73.985 110.633 74.745 109.86L76.085 111.4C75.605 111.973 74.9983 112.407 74.265 112.7C73.5317 112.993 72.705 113.14 71.785 113.14C70.6117 113.14 69.5783 112.907 68.685 112.44C67.7917 111.973 67.0983 111.327 66.605 110.5C66.125 109.66 65.885 108.713 65.885 107.66C65.885 106.62 66.1183 105.687 66.585 104.86C67.065 104.02 67.725 103.367 68.565 102.9C69.405 102.433 70.3517 102.2 71.405 102.2C72.445 102.2 73.3717 102.433 74.185 102.9C75.0117 103.353 75.6517 104 76.105 104.84C76.5717 105.667 76.805 106.627 76.805 107.72ZM71.405 104.2C70.605 104.2 69.925 104.44 69.365 104.92C68.8183 105.387 68.485 106.013 68.365 106.8H74.425C74.3183 106.027 73.9917 105.4 73.445 104.92C72.8983 104.44 72.2183 104.2 71.405 104.2ZM82.5064 113.14C81.6397 113.14 80.7931 113.027 79.9664 112.8C79.1397 112.573 78.4797 112.287 77.9864 111.94L78.9464 110.04C79.4264 110.36 79.9997 110.62 80.6664 110.82C81.3464 111.007 82.0131 111.1 82.6664 111.1C84.1597 111.1 84.9064 110.707 84.9064 109.92C84.9064 109.547 84.7131 109.287 84.3264 109.14C83.9531 108.993 83.3464 108.853 82.5064 108.72C81.6264 108.587 80.9064 108.433 80.3464 108.26C79.7997 108.087 79.3197 107.787 78.9064 107.36C78.5064 106.92 78.3064 106.313 78.3064 105.54C78.3064 104.527 78.7264 103.72 79.5664 103.12C80.4197 102.507 81.5664 102.2 83.0064 102.2C83.7397 102.2 84.4731 102.287 85.2064 102.46C85.9397 102.62 86.5397 102.84 87.0064 103.12L86.0464 105.02C85.1397 104.487 84.1197 104.22 82.9864 104.22C82.2531 104.22 81.6931 104.333 81.3064 104.56C80.9331 104.773 80.7464 105.06 80.7464 105.42C80.7464 105.82 80.9464 106.107 81.3464 106.28C81.7597 106.44 82.3931 106.593 83.2464 106.74C84.0997 106.873 84.7997 107.027 85.3464 107.2C85.8931 107.373 86.3597 107.667 86.7464 108.08C87.1464 108.493 87.3464 109.08 87.3464 109.84C87.3464 110.84 86.9131 111.64 86.0464 112.24C85.1797 112.84 83.9997 113.14 82.5064 113.14ZM95.9194 112.42C95.626 112.66 95.266 112.84 94.8394 112.96C94.426 113.08 93.986 113.14 93.5194 113.14C92.346 113.14 91.4394 112.833 90.7994 112.22C90.1594 111.607 89.8394 110.713 89.8394 109.54V104.4H88.0794V102.4H89.8394V99.96H92.3394V102.4H95.1994V104.4H92.3394V109.48C92.3394 110 92.466 110.4 92.7194 110.68C92.9727 110.947 93.3394 111.08 93.8194 111.08C94.3794 111.08 94.846 110.933 95.2194 110.64L95.9194 112.42Z"
        fill="black" />
    <path
        d="M61.72 77.2H57.08V75H68.96V77.2H64.32V89H61.72V77.2ZM79.6175 83.72C79.6175 83.8933 79.6042 84.14 79.5775 84.46H71.1975C71.3442 85.2467 71.7242 85.8733 72.3375 86.34C72.9642 86.7933 73.7375 87.02 74.6575 87.02C75.8308 87.02 76.7975 86.6333 77.5575 85.86L78.8975 87.4C78.4175 87.9733 77.8108 88.4067 77.0775 88.7C76.3442 88.9933 75.5175 89.14 74.5975 89.14C73.4242 89.14 72.3908 88.9067 71.4975 88.44C70.6042 87.9733 69.9108 87.3267 69.4175 86.5C68.9375 85.66 68.6975 84.7133 68.6975 83.66C68.6975 82.62 68.9308 81.6867 69.3975 80.86C69.8775 80.02 70.5375 79.3667 71.3775 78.9C72.2175 78.4333 73.1642 78.2 74.2175 78.2C75.2575 78.2 76.1842 78.4333 76.9975 78.9C77.8242 79.3533 78.4642 80 78.9175 80.84C79.3842 81.6667 79.6175 82.6267 79.6175 83.72ZM74.2175 80.2C73.4175 80.2 72.7375 80.44 72.1775 80.92C71.6308 81.3867 71.2975 82.0133 71.1775 82.8H77.2375C77.1308 82.0267 76.8042 81.4 76.2575 80.92C75.7108 80.44 75.0308 80.2 74.2175 80.2ZM86.9189 89.14C85.8122 89.14 84.8189 88.9067 83.9389 88.44C83.0589 87.9733 82.3722 87.3267 81.8789 86.5C81.3856 85.66 81.1389 84.7133 81.1389 83.66C81.1389 82.6067 81.3856 81.6667 81.8789 80.84C82.3722 80.0133 83.0522 79.3667 83.9189 78.9C84.7989 78.4333 85.7989 78.2 86.9189 78.2C87.9722 78.2 88.8922 78.4133 89.6789 78.84C90.4789 79.2667 91.0789 79.88 91.4789 80.68L89.5589 81.8C89.2522 81.3067 88.8656 80.94 88.3989 80.7C87.9456 80.4467 87.4456 80.32 86.8989 80.32C85.9656 80.32 85.1922 80.6267 84.5789 81.24C83.9656 81.84 83.6589 82.6467 83.6589 83.66C83.6589 84.6733 83.9589 85.4867 84.5589 86.1C85.1722 86.7 85.9522 87 86.8989 87C87.4456 87 87.9456 86.88 88.3989 86.64C88.8656 86.3867 89.2522 86.0133 89.5589 85.52L91.4789 86.64C91.0656 87.44 90.4589 88.06 89.6589 88.5C88.8722 88.9267 87.9589 89.14 86.9189 89.14ZM99.6023 78.2C100.949 78.2 102.029 78.5933 102.842 79.38C103.656 80.1667 104.062 81.3333 104.062 82.88V89H101.562V83.2C101.562 82.2667 101.342 81.5667 100.902 81.1C100.462 80.62 99.8357 80.38 99.0223 80.38C98.1023 80.38 97.3757 80.66 96.8423 81.22C96.309 81.7667 96.0423 82.56 96.0423 83.6V89H93.5423V74.16H96.0423V79.56C96.4557 79.12 96.9623 78.7867 97.5623 78.56C98.1757 78.32 98.8557 78.2 99.6023 78.2ZM113.294 78.2C114.64 78.2 115.72 78.5933 116.534 79.38C117.347 80.1667 117.754 81.3333 117.754 82.88V89H115.254V83.2C115.254 82.2667 115.034 81.5667 114.594 81.1C114.154 80.62 113.527 80.38 112.714 80.38C111.794 80.38 111.067 80.66 110.534 81.22C110 81.7667 109.734 82.56 109.734 83.6V89H107.234V78.32H109.614V79.7C110.027 79.2067 110.547 78.8333 111.174 78.58C111.8 78.3267 112.507 78.2 113.294 78.2ZM120.925 78.32H123.425V89H120.925V78.32ZM122.185 76.56C121.732 76.56 121.352 76.42 121.045 76.14C120.738 75.8467 120.585 75.4867 120.585 75.06C120.585 74.6333 120.738 74.28 121.045 74C121.352 73.7067 121.732 73.56 122.185 73.56C122.638 73.56 123.018 73.7 123.325 73.98C123.632 74.2467 123.785 74.5867 123.785 75C123.785 75.44 123.632 75.8133 123.325 76.12C123.032 76.4133 122.652 76.56 122.185 76.56ZM131.606 89.14C130.5 89.14 129.506 88.9067 128.626 88.44C127.746 87.9733 127.06 87.3267 126.566 86.5C126.073 85.66 125.826 84.7133 125.826 83.66C125.826 82.6067 126.073 81.6667 126.566 80.84C127.06 80.0133 127.74 79.3667 128.606 78.9C129.486 78.4333 130.486 78.2 131.606 78.2C132.66 78.2 133.58 78.4133 134.366 78.84C135.166 79.2667 135.766 79.88 136.166 80.68L134.246 81.8C133.94 81.3067 133.553 80.94 133.086 80.7C132.633 80.4467 132.133 80.32 131.586 80.32C130.653 80.32 129.88 80.6267 129.266 81.24C128.653 81.84 128.346 82.6467 128.346 83.66C128.346 84.6733 128.646 85.4867 129.246 86.1C129.86 86.7 130.64 87 131.586 87C132.133 87 132.633 86.88 133.086 86.64C133.553 86.3867 133.94 86.0133 134.246 85.52L136.166 86.64C135.753 87.44 135.146 88.06 134.346 88.5C133.56 88.9267 132.646 89.14 131.606 89.14ZM142.408 78.2C143.981 78.2 145.181 78.58 146.008 79.34C146.848 80.0867 147.268 81.22 147.268 82.74V89H144.908V87.7C144.601 88.1667 144.161 88.5267 143.588 88.78C143.028 89.02 142.348 89.14 141.548 89.14C140.748 89.14 140.048 89.0067 139.448 88.74C138.848 88.46 138.381 88.08 138.048 87.6C137.728 87.1067 137.568 86.5533 137.568 85.94C137.568 84.98 137.921 84.2133 138.628 83.64C139.348 83.0533 140.474 82.76 142.008 82.76H144.768V82.6C144.768 81.8533 144.541 81.28 144.088 80.88C143.648 80.48 142.988 80.28 142.108 80.28C141.508 80.28 140.914 80.3733 140.328 80.56C139.754 80.7467 139.268 81.0067 138.868 81.34L137.888 79.52C138.448 79.0933 139.121 78.7667 139.908 78.54C140.694 78.3133 141.528 78.2 142.408 78.2ZM142.068 87.32C142.694 87.32 143.248 87.18 143.728 86.9C144.221 86.6067 144.568 86.1933 144.768 85.66V84.42H142.188C140.748 84.42 140.028 84.8933 140.028 85.84C140.028 86.2933 140.208 86.6533 140.568 86.92C140.928 87.1867 141.428 87.32 142.068 87.32ZM150.476 74.16H152.976V89H150.476V74.16Z"
        fill="black" />
    <path
        d="M0 5C0 2.23858 2.23858 0 5 0H6.71348C9.4749 0 11.7135 2.23858 11.7135 5V82.1514C11.7135 84.9128 13.9521 87.1514 16.7135 87.1514H22.3976C25.1591 87.1514 27.3976 89.39 27.3976 92.1514V113C27.3976 115.761 25.1591 118 22.3976 118H5C2.23857 118 0 115.761 0 113V5Z"
        fill="black" />
    <path
        d="M18 40C18 37.2386 20.2386 35 23 35H24.7135C27.4749 35 29.7135 37.2386 29.7135 40V77.5C29.7135 80.2614 27.4749 82.5 24.7135 82.5H23C20.2386 82.5 18 80.2614 18 77.5V40Z"
        fill="black" />
    <path
        d="M35.1117 35.8486C35.1117 33.0872 32.8731 30.8486 30.1117 30.8486H29.9368C27.1754 30.8486 24.9368 28.61 24.9368 25.8486V5C24.9368 2.23858 27.1754 0 29.9368 0H52C54.7614 0 57 2.23858 57 5V25.8486C57 28.61 54.7614 30.8486 52 30.8486H51.8252C49.0637 30.8486 46.8252 33.0872 46.8252 35.8486V113C46.8252 115.761 44.5866 118 41.8252 118H40.1117C37.3502 118 35.1117 115.761 35.1117 113V35.8486Z"
        fill="black" />
</svg>